<?xml version="1.0" standalone="no"?>
<!DOCTYPE svg PUBLIC "-//W3C//DTD SVG 20010904//EN"
 "http://www.w3.org/TR/2001/REC-SVG-20010904/DTD/svg10.dtd">
<svg version="1.0" xmlns="http://www.w3.org/2000/svg"
 width="200.000000pt" height="200.000000pt" viewBox="0 0 200.000000 200.000000"
 preserveAspectRatio="xMidYMid meet">
<metadata>
Created by potrace 1.14, written by Peter Selinger 2001-2017
</metadata>
<g transform="translate(0.000000,200.000000) scale(0.100000,-0.100000)"
fill="#000000" stroke="none">
<path d="M580 1436 c0 -2 74 -91 165 -198 174 -204 192 -235 162 -282 -15 -23
-585 -694 -635 -749 l-26 -27 76 0 77 0 258 303 c142 166 290 340 330 386 73
86 90 120 76 159 -4 11 -82 109 -173 216 l-165 195 -72 1 c-40 0 -73 -2 -73
-4z"/>
</g>
</svg>
